<svg width="60" height="60" viewBox="0 0 60 60" fill="none" xmlns="http://www.w3.org/2000/svg">
<rect width="60" height="60" fill="black"/>
<path d="M26.1659 53.7C30.6626 53.7 34.2165 51.9956 35.6308 50.8352V40.1737H25.0417V44.6341H30.989V48.2605C29.7198 48.877 27.7615 49.1671 26.1659 49.1671C20.9802 49.1671 18.0066 45.6495 18.0066 41.044C18.0066 36.4385 20.9077 32.9934 25.3681 32.9934C28.233 32.9934 29.6472 33.9726 30.8802 35.2418L34.3253 31.833C32.2945 29.5121 29.3934 28.4242 25.3681 28.4242C17.9341 28.4242 12.7846 33.755 12.7846 41.044C12.7846 48.333 18.1154 53.7 26.1659 53.7Z" fill="#F9004D"/>
<path d="M47.5346 53.7C52.3577 53.7 55.9478 51.1978 55.9478 46.6286C55.9478 42.3857 53.5181 40.5 49.2027 38.6506L47.9335 38.1066C45.7577 37.1638 44.8148 36.5473 44.8148 35.0242C44.8148 33.7912 45.7577 32.8484 47.2445 32.8484C48.6951 32.8484 49.6379 33.4649 50.5082 35.0242L54.461 32.4857C52.7929 29.5484 50.472 28.4242 47.2445 28.4242C42.7115 28.4242 39.8104 31.3253 39.8104 35.133C39.8104 39.2671 42.2401 41.2253 45.9027 42.7846L47.172 43.3286C49.4929 44.344 50.8709 44.9605 50.8709 46.7011C50.8709 48.1517 49.5291 49.2033 47.4258 49.2033C44.9236 49.2033 43.5093 47.8978 42.4214 46.1209L38.2874 48.5143C39.7742 51.4517 42.8203 53.7 47.5346 53.7Z" fill="white"/>
</svg>
