<svg width="183" height="66" viewBox="0 0 183 66" fill="none" xmlns="http://www.w3.org/2000/svg">
<rect width="66" height="66" fill="black"/>
<path d="M28.7826 58.37C33.729 58.37 37.6382 56.4952 39.1939 55.2187V43.491H27.546V48.3975H34.088V52.3865C32.6918 53.0646 30.5378 53.3837 28.7826 53.3837C23.0783 53.3837 19.8073 49.5144 19.8073 44.4483C19.8073 39.3823 22.9985 35.5927 27.905 35.5927C31.0564 35.5927 32.6121 36.6698 33.9683 38.0659L37.7579 34.3163C35.524 31.7633 32.3328 30.5666 27.905 30.5666C19.7276 30.5666 14.0632 36.4304 14.0632 44.4483C14.0632 52.4663 19.927 58.37 28.7826 58.37Z" fill="#F9004D"/>
<path d="M52.2882 58.37C57.5936 58.37 61.5427 55.6176 61.5427 50.5914C61.5427 45.9243 58.87 43.85 54.1231 41.8156L52.727 41.2172C50.3336 40.1801 49.2964 39.502 49.2964 37.8266C49.2964 36.4703 50.3336 35.4332 51.9691 35.4332C53.5647 35.4332 54.6018 36.1113 55.5592 37.8266L59.9072 35.0343C58.0722 31.8032 55.5193 30.5666 51.9691 30.5666C46.9828 30.5666 43.7916 33.7578 43.7916 37.9463C43.7916 42.4937 46.4642 44.6478 50.4931 46.3631L51.8893 46.9614C54.4422 48.0783 55.9581 48.7565 55.9581 50.6712C55.9581 52.2668 54.4821 53.4236 52.1685 53.4236C49.4161 53.4236 47.8604 51.9876 46.6637 50.033L42.1162 52.6657C43.7517 55.8968 47.1025 58.37 52.2882 58.37Z" fill="white"/>
<path d="M91.0244 27.7812C89.2471 28.8053 87.0381 29.3174 84.3975 29.3174C81.4691 29.3174 79.1585 28.5091 77.4658 26.8926C75.7816 25.2676 74.9395 23.0332 74.9395 20.1895C74.9395 17.3288 75.862 14.9971 77.707 13.1943C79.5521 11.3916 82.0065 10.4902 85.0703 10.4902C87 10.4902 88.7012 10.7568 90.1738 11.29V15.1367C88.7689 14.3242 87.0508 13.918 85.0195 13.918C83.3184 13.918 81.9303 14.4723 80.8555 15.5811C79.7891 16.6813 79.2559 18.154 79.2559 19.999C79.2559 21.8695 79.734 23.3167 80.6904 24.3408C81.6553 25.3649 82.9544 25.877 84.5879 25.877C85.5697 25.877 86.3483 25.7373 86.9238 25.458V21.9033H83.2803V18.6279H91.0244V27.7812ZM105.853 23.6426H97.3721C97.5075 25.5299 98.6966 26.4736 100.939 26.4736C102.37 26.4736 103.627 26.1351 104.71 25.458V28.3525C103.508 28.9958 101.947 29.3174 100.025 29.3174C97.9264 29.3174 96.2972 28.7376 95.1377 27.5781C93.9782 26.4102 93.3984 24.7852 93.3984 22.7031C93.3984 20.5449 94.0247 18.8353 95.2773 17.5742C96.5299 16.3132 98.0703 15.6826 99.8984 15.6826C101.794 15.6826 103.258 16.2454 104.291 17.3711C105.332 18.4967 105.853 20.0244 105.853 21.9541V23.6426ZM102.133 21.1797C102.133 19.3177 101.38 18.3867 99.873 18.3867C99.2298 18.3867 98.6712 18.6533 98.1973 19.1865C97.7318 19.7197 97.4482 20.3841 97.3467 21.1797H102.133ZM116.72 19.6182C116.237 19.3558 115.674 19.2246 115.031 19.2246C114.16 19.2246 113.478 19.5462 112.987 20.1895C112.496 20.8242 112.251 21.6917 112.251 22.792V29H108.239V16H112.251V18.4121H112.302C112.937 16.6517 114.079 15.7715 115.729 15.7715C116.153 15.7715 116.483 15.8223 116.72 15.9238V19.6182ZM139.317 29H135.318V21.5859C135.318 19.6986 134.624 18.7549 133.236 18.7549C132.576 18.7549 132.039 19.0384 131.624 19.6055C131.209 20.1725 131.002 20.8792 131.002 21.7256V29H126.99V21.5098C126.99 19.6732 126.309 18.7549 124.946 18.7549C124.261 18.7549 123.711 19.0257 123.296 19.5674C122.89 20.109 122.687 20.8454 122.687 21.7764V29H118.675V16H122.687V18.0312H122.737C123.152 17.3372 123.732 16.7744 124.477 16.3428C125.23 15.9027 126.051 15.6826 126.939 15.6826C128.776 15.6826 130.033 16.4909 130.71 18.1074C131.7 16.4909 133.156 15.6826 135.077 15.6826C137.904 15.6826 139.317 17.4261 139.317 20.9131V29ZM153.308 29H149.512V27.1338H149.461C148.589 28.5895 147.299 29.3174 145.589 29.3174C144.328 29.3174 143.333 28.9619 142.605 28.251C141.886 27.5316 141.526 26.5752 141.526 25.3818C141.526 22.8597 143.02 21.404 146.008 21.0146L149.537 20.5449C149.537 19.123 148.767 18.4121 147.227 18.4121C145.678 18.4121 144.205 18.8734 142.809 19.7959V16.7744C143.367 16.4867 144.129 16.2327 145.094 16.0127C146.067 15.7926 146.951 15.6826 147.747 15.6826C151.454 15.6826 153.308 17.5319 153.308 21.2305V29ZM149.537 23.7188V22.8428L147.176 23.1475C145.872 23.3167 145.221 23.9049 145.221 24.9121C145.221 25.3691 145.377 25.7458 145.69 26.042C146.012 26.3298 146.444 26.4736 146.985 26.4736C147.739 26.4736 148.352 26.2155 148.826 25.6992C149.3 25.1745 149.537 24.5143 149.537 23.7188ZM169.037 29H165.038V21.7764C165.038 19.762 164.319 18.7549 162.88 18.7549C162.186 18.7549 161.615 19.0215 161.166 19.5547C160.717 20.0879 160.493 20.765 160.493 21.5859V29H156.481V16H160.493V18.0566H160.544C161.5 16.474 162.893 15.6826 164.721 15.6826C167.598 15.6826 169.037 17.4684 169.037 21.04V29ZM75.2441 53.3018V49.2393C75.9805 49.8571 76.7803 50.3226 77.6436 50.6357C78.5068 50.9404 79.3786 51.0928 80.2588 51.0928C80.7751 51.0928 81.2236 51.0462 81.6045 50.9531C81.9938 50.86 82.3154 50.7331 82.5693 50.5723C82.8317 50.403 83.0264 50.2083 83.1533 49.9883C83.2803 49.7598 83.3438 49.5143 83.3438 49.252C83.3438 48.8965 83.2422 48.5791 83.0391 48.2998C82.8359 48.0205 82.5566 47.7624 82.2012 47.5254C81.8542 47.2884 81.4395 47.0599 80.957 46.8398C80.4746 46.6198 79.9541 46.3955 79.3955 46.167C77.9736 45.5745 76.9115 44.8509 76.209 43.9961C75.515 43.1413 75.168 42.1087 75.168 40.8984C75.168 39.9505 75.3584 39.138 75.7393 38.4609C76.1201 37.7754 76.6364 37.2126 77.2881 36.7725C77.9482 36.3324 78.71 36.0107 79.5732 35.8076C80.4365 35.596 81.3506 35.4902 82.3154 35.4902C83.2633 35.4902 84.1012 35.5495 84.8291 35.668C85.5654 35.778 86.2425 35.9515 86.8604 36.1885V39.9844C86.5557 39.7728 86.2214 39.5866 85.8574 39.4258C85.502 39.265 85.1338 39.1338 84.7529 39.0322C84.3721 38.9222 83.9912 38.8418 83.6104 38.791C83.238 38.7402 82.8825 38.7148 82.5439 38.7148C82.0785 38.7148 81.6553 38.7614 81.2744 38.8545C80.8936 38.9391 80.5719 39.0618 80.3096 39.2227C80.0472 39.3835 79.8441 39.5781 79.7002 39.8066C79.5563 40.0267 79.4844 40.2764 79.4844 40.5557C79.4844 40.8604 79.5648 41.1354 79.7256 41.3809C79.8864 41.6178 80.1149 41.8464 80.4111 42.0664C80.7074 42.278 81.0671 42.4896 81.4902 42.7012C81.9134 42.9043 82.3916 43.1159 82.9248 43.3359C83.6527 43.6406 84.3044 43.9665 84.8799 44.3135C85.4639 44.652 85.9632 45.0371 86.3779 45.4688C86.7926 45.9004 87.11 46.3955 87.3301 46.9541C87.5501 47.5042 87.6602 48.1475 87.6602 48.8838C87.6602 49.8994 87.4655 50.7542 87.0762 51.4482C86.6953 52.1338 86.1748 52.6924 85.5146 53.124C84.8545 53.5472 84.0843 53.8519 83.2041 54.0381C82.3324 54.2243 81.4098 54.3174 80.4365 54.3174C79.4378 54.3174 78.4857 54.2327 77.5801 54.0635C76.6829 53.8942 75.9043 53.6403 75.2441 53.3018ZM96.458 54.3174C94.2913 54.3174 92.5859 53.7122 91.3418 52.502C90.1061 51.2832 89.4883 49.6328 89.4883 47.5508C89.4883 45.401 90.1315 43.721 91.418 42.5107C92.7044 41.292 94.4437 40.6826 96.6357 40.6826C98.7939 40.6826 100.487 41.292 101.714 42.5107C102.941 43.721 103.555 45.3249 103.555 47.3223C103.555 49.4805 102.92 51.1859 101.65 52.4385C100.389 53.6911 98.6585 54.3174 96.458 54.3174ZM96.5596 43.7549C95.6117 43.7549 94.8753 44.0807 94.3506 44.7324C93.8258 45.3841 93.5635 46.3066 93.5635 47.5C93.5635 49.9967 94.5706 51.2451 96.585 51.2451C98.5062 51.2451 99.4668 49.9629 99.4668 47.3984C99.4668 44.9694 98.4977 43.7549 96.5596 43.7549ZM110.169 54H106.157V34.7539H110.169V54ZM124.362 54H120.566V52.1338H120.516C119.644 53.5895 118.353 54.3174 116.644 54.3174C115.382 54.3174 114.388 53.9619 113.66 53.251C112.941 52.5316 112.581 51.5752 112.581 50.3818C112.581 47.8597 114.075 46.404 117.062 46.0146L120.592 45.5449C120.592 44.123 119.822 43.4121 118.281 43.4121C116.732 43.4121 115.26 43.8734 113.863 44.7959V41.7744C114.422 41.4867 115.184 41.2327 116.148 41.0127C117.122 40.7926 118.006 40.6826 118.802 40.6826C122.509 40.6826 124.362 42.5319 124.362 46.2305V54ZM120.592 48.7188V47.8428L118.23 48.1475C116.927 48.3167 116.275 48.9049 116.275 49.9121C116.275 50.3691 116.432 50.7458 116.745 51.042C117.067 51.3298 117.498 51.4736 118.04 51.4736C118.793 51.4736 119.407 51.2155 119.881 50.6992C120.355 50.1745 120.592 49.5143 120.592 48.7188ZM140.092 54H136.093V46.7764C136.093 44.762 135.373 43.7549 133.935 43.7549C133.241 43.7549 132.669 44.0215 132.221 44.5547C131.772 45.0879 131.548 45.765 131.548 46.5859V54H127.536V41H131.548V43.0566H131.599C132.555 41.474 133.947 40.6826 135.775 40.6826C138.653 40.6826 140.092 42.4684 140.092 46.04V54ZM149.474 54.3174C147.307 54.3174 145.602 53.7122 144.357 52.502C143.122 51.2832 142.504 49.6328 142.504 47.5508C142.504 45.401 143.147 43.721 144.434 42.5107C145.72 41.292 147.459 40.6826 149.651 40.6826C151.81 40.6826 153.502 41.292 154.729 42.5107C155.957 43.721 156.57 45.3249 156.57 47.3223C156.57 49.4805 155.936 51.1859 154.666 52.4385C153.405 53.6911 151.674 54.3174 149.474 54.3174ZM149.575 43.7549C148.627 43.7549 147.891 44.0807 147.366 44.7324C146.841 45.3841 146.579 46.3066 146.579 47.5C146.579 49.9967 147.586 51.2451 149.601 51.2451C151.522 51.2451 152.482 49.9629 152.482 47.3984C152.482 44.9694 151.513 43.7549 149.575 43.7549Z" fill="white"/>
</svg>
